<?xml version="1.0" standalone="no"?>
<!DOCTYPE svg PUBLIC "-//W3C//DTD SVG 20010904//EN"
 "http://www.w3.org/TR/2001/REC-SVG-20010904/DTD/svg10.dtd">
<svg version="1.0" xmlns="http://www.w3.org/2000/svg"
 width="256.000000pt" height="245.000000pt" viewBox="0 0 256.000000 245.000000"
 preserveAspectRatio="xMidYMid meet">

<g transform="translate(0.000000,245.000000) scale(0.100000,-0.100000)"
fill="#000000" stroke="none">
<path d="M351 2434 c-211 -57 -367 -269 -348 -476 6 -66 52 -178 122 -297 50
-84 230 -327 303 -410 l38 -45 98 120 c175 215 312 434 350 563 42 141 -7 305
-123 422 -116 116 -288 164 -440 123z m235 -173 c88 -40 154 -122 175 -219 15
-73 -12 -157 -93 -293 -76 -126 -189 -280 -203 -276 -18 6 -146 181 -207 282
-78 132 -104 216 -89 287 15 66 49 126 97 168 61 53 108 70 199 70 56 0 92 -6
121 -19z"/>
<path d="M417 2136 c-72 -26 -107 -76 -107 -153 0 -90 65 -153 157 -153 57 0
104 26 134 72 29 48 23 147 -11 184 -49 52 -114 71 -173 50z"/>
<path d="M1948 1407 c-167 -57 -280 -190 -310 -365 -16 -95 -3 -156 61 -287
75 -155 158 -275 372 -538 9 -11 21 -18 27 -16 18 6 197 235 277 354 120 179
185 326 185 420 0 55 -25 149 -57 212 -30 60 -129 160 -188 191 -113 57 -252
68 -367 29z m240 -152 c112 -33 205 -159 205 -276 0 -70 -41 -163 -140 -313
-106 -163 -152 -219 -169 -205 -47 39 -218 305 -264 409 -50 116 -22 231 80
323 82 74 178 94 288 62z"/>
<path d="M2025 1111 c-59 -35 -85 -77 -85 -134 0 -69 26 -115 80 -144 73 -39
140 -25 198 41 27 31 32 45 32 87 0 69 -24 114 -75 144 -50 30 -108 32 -150 6z"/>
<path d="M406 1111 c-25 -27 -17 -72 14 -88 14 -7 49 -13 78 -13 79 0 114 44
76 98 -13 19 -24 22 -83 22 -54 0 -71 -4 -85 -19z"/>
<path d="M727 1113 c-24 -27 -22 -79 3 -93 28 -15 190 -30 217 -19 57 21 32
103 -34 113 -126 18 -168 18 -186 -1z"/>
<path d="M1107 1032 c-29 -32 -21 -68 23 -103 22 -18 42 -41 46 -53 17 -55 74
-74 109 -36 34 38 -3 127 -76 180 -48 34 -79 38 -102 12z"/>
<path d="M980 757 c-93 -31 -95 -33 -98 -65 -6 -60 31 -75 123 -52 117 31 152
59 134 108 -6 17 -49 46 -62 41 -1 0 -45 -15 -97 -32z"/>
<path d="M605 671 c-33 -9 -70 -22 -81 -29 -48 -26 -31 -95 24 -100 35 -4 178
32 199 50 16 13 17 70 1 86 -17 17 -72 14 -143 -7z"/>
<path d="M304 525 c-52 -52 -70 -146 -39 -205 12 -24 22 -30 48 -30 45 0 57
16 57 75 0 33 7 60 20 80 26 39 25 51 -5 80 -31 32 -50 31 -81 0z"/>
<path d="M454 245 c-19 -29 -11 -60 21 -81 26 -17 150 -54 181 -54 44 0 73 72
40 99 -19 16 -165 61 -198 61 -18 0 -33 -8 -44 -25z"/>
<path d="M844 165 c-18 -19 -23 -31 -19 -48 11 -36 27 -45 95 -56 105 -17 146
-14 164 11 35 50 5 85 -84 98 -36 6 -80 12 -98 15 -25 5 -37 1 -58 -20z"/>
<path d="M1233 124 c-28 -28 -29 -45 -5 -74 17 -21 30 -24 124 -28 106 -5 106
-5 123 22 15 22 16 32 7 52 -15 32 -40 40 -141 46 -79 5 -87 3 -108 -18z"/>
<path d="M1662 123 c-43 -6 -69 -44 -54 -78 13 -28 26 -32 144 -39 85 -6 87
-5 107 20 26 33 26 45 3 73 -14 19 -30 23 -92 26 -41 1 -90 1 -108 -2z"/>
<path d="M2017 102 c-24 -26 -21 -68 5 -86 34 -24 133 -21 158 4 25 25 26 62
2 83 -27 25 -143 24 -165 -1z"/>
</g>
</svg>
